<?xml version="1.0" encoding="UTF-8" standalone="no"?>
<!-- Created with Inkscape (http://www.inkscape.org/) -->

<svg
   xmlns:dc="http://purl.org/dc/elements/1.1/"
   xmlns:cc="http://creativecommons.org/ns#"
   xmlns:rdf="http://www.w3.org/1999/02/22-rdf-syntax-ns#"
   xmlns:svg="http://www.w3.org/2000/svg"
   xmlns="http://www.w3.org/2000/svg"
   xmlns:sodipodi="http://sodipodi.sourceforge.net/DTD/sodipodi-0.dtd"
   xmlns:inkscape="http://www.inkscape.org/namespaces/inkscape"
   width="91mm"
   height="91mm"
   viewBox="0 0 91 90.999999"
   version="1.1"
   id="svg8"
   inkscape:version="0.92.4 (5da689c313, 2019-01-14)"
   sodipodi:docname="eyeActive.svg"
   inkscape:export-filename="/home/t4b/work/hci-group-13-hifi-proto/lukas-work-in-progress/eyeActive.svg.png"
   inkscape:export-xdpi="27.91"
   inkscape:export-ydpi="27.91">
  <defs
     id="defs2" />
  <sodipodi:namedview
     id="base"
     pagecolor="#ffffff"
     bordercolor="#666666"
     borderopacity="1.0"
     inkscape:pageopacity="0.0"
     inkscape:pageshadow="2"
     inkscape:zoom="0.98994949"
     inkscape:cx="67.960583"
     inkscape:cy="105.86772"
     inkscape:document-units="mm"
     inkscape:current-layer="layer1"
     showgrid="false"
     showguides="false"
     inkscape:window-width="1366"
     inkscape:window-height="704"
     inkscape:window-x="0"
     inkscape:window-y="27"
     inkscape:window-maximized="1"
     fit-margin-top="0"
     fit-margin-left="0"
     fit-margin-right="0"
     fit-margin-bottom="0" />
  <metadata
     id="metadata5">
    <rdf:RDF>
      <cc:Work
         rdf:about="">
        <dc:format>image/svg+xml</dc:format>
        <dc:type
           rdf:resource="http://purl.org/dc/dcmitype/StillImage" />
        <dc:title></dc:title>
      </cc:Work>
    </rdf:RDF>
  </metadata>
  <g
     inkscape:label="Layer 1"
     inkscape:groupmode="layer"
     id="layer1"
     transform="translate(-19.923619,46.761925)">
    <path
       style="fill:none;stroke:#000000;stroke-width:1;stroke-linecap:butt;stroke-linejoin:miter;stroke-miterlimit:4;stroke-dasharray:none;stroke-opacity:1"
       d="M 31.938708,-0.93434858 C 37.168761,-16.38715 65.794982,-22.567614 80.180856,-17.772322 c 3.395017,1.131672 6.629077,2.655141 9.888974,3.741773 2.072087,0.690697 3.477046,3.029902 5.612659,3.741774 2.734255,0.9114163 9.755341,7.2776517 9.755341,9.75533009 0,1.24339034 -7.78252,3.85199781 -10.022609,5.34538791 C 91.350747,7.5215925 85.281036,6.0704434 81.116301,8.1528112 66.503671,15.459125 38.697304,5.8242434 31.938708,-0.93434858 Z"
       id="path26"
       inkscape:connector-curvature="0" />
    <path
       style="fill:#000000;fill-opacity:1;stroke:#000000;stroke-width:0.26458332px;stroke-linecap:butt;stroke-linejoin:miter;stroke-opacity:1"
       d="m 62.140165,-17.237783 c -5.500354,-0.66741 -8.493265,9.3099883 -9.888974,13.4971059 -1.87098,5.6129419 3.583318,11.3506766 7.617182,12.6952967 2.047815,0.6826037 5.282949,-1.5353421 7.483547,-0.8018084 1.508244,0.5027477 4.868153,1.0117764 6.147199,-0.267269 3.900556,-3.9005536 3.040769,-4.2106486 5.34539,-8.81989078 2.861096,-5.72218762 -2.011179,-9.62835542 -5.34539,-12.96256542 -3.55659,-3.556589 -6.169654,-4.101288 -10.557147,-3.474504"
       id="path30"
       inkscape:connector-curvature="0" />
    <path
       style="fill:none;stroke:#000000;stroke-width:1;stroke-linecap:butt;stroke-linejoin:miter;stroke-miterlimit:4;stroke-dasharray:none;stroke-opacity:1"
       d="m 101.56242,-11.357853 c -0.0184,-7.843408 8.28536,-14.92985 8.28536,-22.450647"
       id="path4562"
       inkscape:connector-curvature="0" />
    <path
       style="fill:none;stroke:#000000;stroke-width:1;stroke-linecap:butt;stroke-linejoin:miter;stroke-miterlimit:4;stroke-dasharray:none;stroke-opacity:1"
       d="m 88.733483,-20.979556 c 1.239499,-6.29599 4.141404,-13.50729 3.340868,-19.91159"
       id="path4566"
       inkscape:connector-curvature="0" />
    <path
       style="fill:none;stroke:#000000;stroke-width:1;stroke-linecap:butt;stroke-linejoin:miter;stroke-miterlimit:4;stroke-dasharray:none;stroke-opacity:1"
       d="m 74.434561,-24.053157 c -0.79893,-7.707267 -3.608226,-16.170021 -6.414468,-22.71792"
       id="path4568"
       inkscape:connector-curvature="0" />
    <path
       style="fill:none;stroke:#000000;stroke-width:1;stroke-linecap:butt;stroke-linejoin:miter;stroke-miterlimit:4;stroke-dasharray:none;stroke-opacity:1"
       d="M 57.596582,-22.315904 C 53.258357,-28.597073 47.34779,-36.854711 40.892237,-41.158416"
       id="path4570"
       inkscape:connector-curvature="0" />
    <path
       style="fill:none;stroke:#000000;stroke-width:1;stroke-linecap:butt;stroke-linejoin:miter;stroke-miterlimit:4;stroke-dasharray:none;stroke-opacity:1"
       d="M 39.288619,-15.233262 C 32.704645,-20.307486 23.313622,-24.979497 20.045214,-32.605786"
       id="path4572"
       inkscape:connector-curvature="0" />
  </g>
</svg>
